<svg xmlns="http://www.w3.org/2000/svg" width="26" height="26" viewBox="0 0 26 26" fill="none">
<path d="M8.81939 7.57718L11.664 4.72017V16.6327C11.664 16.9621 11.7949 17.2781 12.0278 17.511C12.2608 17.744 12.5767 17.8748 12.9062 17.8748C13.2356 17.8748 13.5516 17.744 13.7845 17.511C14.0175 17.2781 14.1483 16.9621 14.1483 16.6327V4.72017L16.9929 7.57718C17.1084 7.69361 17.2458 7.78602 17.3972 7.84909C17.5485 7.91215 17.7109 7.94462 17.8749 7.94462C18.0389 7.94462 18.2012 7.91215 18.3526 7.84909C18.504 7.78602 18.6413 7.69361 18.7568 7.57718C18.8732 7.46171 18.9657 7.32432 19.0287 7.17295C19.0918 7.02158 19.1243 6.85922 19.1243 6.69524C19.1243 6.53126 19.0918 6.3689 19.0287 6.21753C18.9657 6.06615 18.8732 5.92877 18.7568 5.81329L13.7881 0.844577C13.67 0.731489 13.5307 0.64284 13.3782 0.58372C13.0758 0.459479 12.7366 0.459479 12.4341 0.58372C12.2817 0.64284 12.1423 0.731489 12.0242 0.844577L7.0555 5.81329C6.93968 5.92911 6.84781 6.06661 6.78513 6.21793C6.72245 6.36926 6.69019 6.53145 6.69019 6.69524C6.69019 6.85903 6.72245 7.02122 6.78513 7.17254C6.84781 7.32387 6.93968 7.46137 7.0555 7.57718C7.17132 7.693 7.30882 7.78488 7.46014 7.84756C7.61146 7.91024 7.77365 7.9425 7.93745 7.9425C8.10124 7.9425 8.26343 7.91024 8.41475 7.84756C8.56608 7.78488 8.70357 7.693 8.81939 7.57718ZM24.0858 12.9061C23.7563 12.9061 23.4404 13.037 23.2074 13.27C22.9745 13.5029 22.8436 13.8189 22.8436 14.1483V21.6014C22.8436 21.9308 22.7127 22.2468 22.4798 22.4797C22.2468 22.7127 21.9309 22.8436 21.6014 22.8436H4.21091C3.88146 22.8436 3.56551 22.7127 3.33256 22.4797C3.0996 22.2468 2.96873 21.9308 2.96873 21.6014V14.1483C2.96873 13.8189 2.83786 13.5029 2.60491 13.27C2.37195 13.037 2.056 12.9061 1.72655 12.9061C1.39711 12.9061 1.08115 13.037 0.848201 13.27C0.615247 13.5029 0.484375 13.8189 0.484375 14.1483V21.6014C0.484375 22.5897 0.876991 23.5376 1.57585 24.2364C2.27471 24.9353 3.22257 25.3279 4.21091 25.3279H21.6014C22.5897 25.3279 23.5376 24.9353 24.2365 24.2364C24.9353 23.5376 25.3279 22.5897 25.3279 21.6014V14.1483C25.3279 13.8189 25.1971 13.5029 24.9641 13.27C24.7312 13.037 24.4152 12.9061 24.0858 12.9061Z" fill="#3563E9"/>
</svg>